<svg id="New_Colors" data-name="New Colors" xmlns="http://www.w3.org/2000/svg" viewBox="0 0 5000 5000"><defs><style>.cls-1{fill:#d3ace8;}.cls-2{fill:#f2add5;}.cls-3{fill:#f7c1e0;}.cls-4{opacity:0.9;}.cls-5{fill:#ae72dd;}.cls-6{fill:#f77fbe;}.cls-7{fill:#eaa0d1;}</style></defs><g id="Cube_1" data-name="Cube 1"><polygon class="cls-1" points="402 1287.6 402 3712.49 2502 4924.93 2502 2500.05 402 1287.6"/><polygon class="cls-2" points="2502 2500.05 2502 4924.93 4602 3712.49 4602 1287.6 2502 2500.05"/><polygon class="cls-3" points="4602 1287.6 2502 2500.05 402 1287.6 2502 75.16 4602 1287.6"/></g><g id="Cube_2" data-name="Cube 2" class="cls-4"><polygon class="cls-5" points="1452 1893.49 1452 3105.93 2502 3712.15 2502 2499.72 1452 1893.49"/><polygon class="cls-6" points="2502 2499.72 2502 3712.15 3552 3105.93 3552 1893.49 2502 2499.72"/><polygon class="cls-7" points="3552 1893.49 2502 2499.72 1452 1893.49 2502 1287.27 3552 1893.49"/></g></svg>