<svg width="111" height="32" viewBox="0 0 111 32" fill="none" xmlns="http://www.w3.org/2000/svg">
<path d="M16.7672 0.150704C16.74 0.00989993 16.9319 -0.0605027 17.0007 0.0659013L21.9268 8.98458C22.1668 9.41979 22.5252 9.7782 22.9604 10.0198L31.9326 14.9976C32.059 15.068 31.9886 15.26 31.8462 15.2312L22.194 13.3063C20.4021 12.9495 19.0022 11.5447 18.6502 9.751L16.7672 0.150704ZM14.9977 0.0659013L10.0716 8.98458C9.83159 9.41979 9.47322 9.7782 9.03805 10.0198L0.0658165 14.9976C-0.0605753 15.068 0.00982639 15.26 0.152217 15.2312L9.80441 13.3063C11.5963 12.9495 12.9962 11.5447 13.3482 9.751L15.2312 0.150704C15.2584 0.00989993 15.0665 -0.0605027 14.9977 0.0659013ZM31.8478 16.7688L22.1956 18.6937C20.4037 19.0505 19.0038 20.4553 18.6518 22.249L16.7688 31.8493C16.7416 31.9901 16.9335 32.0605 17.0023 31.9341L21.9284 23.0154C22.1684 22.5802 22.5268 22.2218 22.962 21.9802L31.9342 17.0024C32.0606 16.932 31.9902 16.74 31.8478 16.7688ZM13.3482 22.249C12.9962 20.4553 11.5963 19.0505 9.80441 18.6937L0.152217 16.7688C0.0114263 16.74 -0.0589754 16.9336 0.0658165 17.0024L9.03805 21.9802C9.47322 22.2218 9.83159 22.5802 10.0716 23.0154L14.9977 31.9341C15.0665 32.0605 15.26 31.9901 15.2312 31.8493L13.3482 22.249Z" fill="#F1C4A4"/>
<path d="M53.25 25.734H40.25C40.112 25.734 40 25.622 40 25.484V6.802C40 6.664 40.112 6.552 40.25 6.552H42.696C42.834 6.552 42.946 6.664 42.946 6.802V22.906C42.946 23.044 43.058 23.156 43.196 23.156H53.482C53.632 23.156 53.748 23.286 53.73 23.434L53.496 25.512C53.482 25.638 53.374 25.734 53.248 25.734H53.25Z" fill="#F2F2F9"/>
<path d="M61.1088 12.052C65.0568 12.052 68.1868 15.132 68.1868 19.026C68.1868 22.92 65.0548 26 61.1088 26C57.1628 26 54.1348 22.948 54.1348 19.026C54.1348 15.104 57.1348 12.052 61.1088 12.052ZM61.1088 23.63C63.6088 23.63 65.7408 21.552 65.7408 19.024C65.7408 16.496 63.6088 14.444 61.1088 14.444C58.6088 14.444 56.5568 16.576 56.5568 19.024C56.5568 21.472 58.6088 23.63 61.1088 23.63Z" fill="#F2F2F9"/>
<path d="M76.4464 23.814C78.1784 23.814 80.1004 22.618 80.5944 21.206C80.6364 21.088 80.7584 21.02 80.8804 21.048L82.7084 21.442C82.8544 21.474 82.9384 21.626 82.8924 21.768C82.0904 24.256 79.3424 25.998 76.4704 25.998C72.4444 25.998 69.7344 23.076 69.7344 19.13C69.7344 14.814 72.2084 12.052 76.7604 12.052C80.0284 12.052 82.4044 13.91 82.8804 16.158C82.9064 16.278 82.8344 16.398 82.7184 16.44L80.8204 17.122C80.6864 17.17 80.5444 17.096 80.4984 16.962C79.8444 15.084 78.3284 14.262 76.2084 14.262C73.6024 14.262 72.1024 16.288 72.1024 18.946C72.1024 21.604 73.9444 23.814 76.4444 23.814H76.4464Z" fill="#F2F2F9"/>
<path d="M85.42 25.486V6.25C85.42 6.112 85.532 6 85.67 6H87.748C87.886 6 87.998 6.112 87.998 6.25V17.978C87.998 18.166 88.222 18.262 88.36 18.134L94.398 12.486C94.48 12.41 94.588 12.366 94.7 12.366H97.404C97.632 12.366 97.742 12.648 97.572 12.802L91.978 17.878C91.874 17.972 91.868 18.134 91.964 18.236L98.7 25.312C98.852 25.472 98.738 25.734 98.518 25.734H95.868C95.798 25.734 95.732 25.706 95.684 25.654L90.236 19.802C90.146 19.704 89.994 19.696 89.892 19.78L88.152 21.232C88.052 21.316 87.994 21.44 87.994 21.57V25.482C87.994 25.62 87.882 25.732 87.744 25.732H85.666C85.528 25.732 85.416 25.62 85.416 25.482L85.42 25.486Z" fill="#F2F2F9"/>
<path d="M100.734 25.4865V12.6885C100.734 12.5645 100.824 12.4605 100.946 12.4405L101.87 12.2945C101.99 12.2765 102.106 12.3445 102.146 12.4585L102.8 14.3225C102.866 14.5125 103.124 14.5525 103.238 14.3865C104.082 13.1725 105.522 12.2605 107.578 12.2605C108.41 12.2605 109.33 12.3245 109.868 12.6485C109.966 12.7065 110.016 12.8205 110 12.9325L109.732 14.7865C109.708 14.9505 109.534 15.0465 109.382 14.9765C108.82 14.7225 108.24 14.6285 107.526 14.6285C105.236 14.6285 103.21 16.3125 103.21 18.4965V25.4825C103.21 25.6205 103.098 25.7325 102.96 25.7325H100.986C100.848 25.7325 100.736 25.6205 100.736 25.4825L100.734 25.4865Z" fill="#F2F2F9"/>
</svg>
